<mxfile host="app.diagrams.net" modified="2022-08-28T14:48:08.371Z" agent="5.0 (Macintosh; Intel Mac OS X 10_15_7) AppleWebKit/537.36 (KHTML, like Gecko) Chrome/104.0.0.0 Safari/537.36" etag="9N1U1qNJVu-i9DiBbHmA" version="20.2.7" type="github">
  <diagram id="AaJE0XzZwNKetpczEiaV" name="第 1 页">
    <mxGraphModel dx="1773" dy="562" grid="1" gridSize="10" guides="1" tooltips="1" connect="1" arrows="1" fold="1" page="1" pageScale="1" pageWidth="827" pageHeight="1169" math="0" shadow="0">
      <root>
        <mxCell id="0" />
        <mxCell id="1" parent="0" />
        <mxCell id="gUAEJNBoW_0_qJLYptyX-8" style="edgeStyle=orthogonalEdgeStyle;rounded=0;orthogonalLoop=1;jettySize=auto;html=1;entryX=0;entryY=0.5;entryDx=0;entryDy=0;fontSize=16;fillColor=#d5e8d4;gradientColor=#97d077;strokeColor=#82b366;" edge="1" parent="1" source="gUAEJNBoW_0_qJLYptyX-2" target="gUAEJNBoW_0_qJLYptyX-3">
          <mxGeometry relative="1" as="geometry" />
        </mxCell>
        <mxCell id="gUAEJNBoW_0_qJLYptyX-2" value="1" style="rounded=0;whiteSpace=wrap;html=1;fontSize=16;fillColor=#d5e8d4;gradientColor=#97d077;strokeColor=#82b366;" vertex="1" parent="1">
          <mxGeometry x="80" y="165" width="40" height="40" as="geometry" />
        </mxCell>
        <mxCell id="gUAEJNBoW_0_qJLYptyX-9" style="edgeStyle=orthogonalEdgeStyle;rounded=0;orthogonalLoop=1;jettySize=auto;html=1;entryX=0;entryY=0.5;entryDx=0;entryDy=0;fontSize=16;fillColor=#d5e8d4;gradientColor=#97d077;strokeColor=#82b366;" edge="1" parent="1" source="gUAEJNBoW_0_qJLYptyX-3" target="gUAEJNBoW_0_qJLYptyX-5">
          <mxGeometry relative="1" as="geometry" />
        </mxCell>
        <mxCell id="gUAEJNBoW_0_qJLYptyX-3" value="2" style="rounded=0;whiteSpace=wrap;html=1;fontSize=16;fillColor=#d5e8d4;gradientColor=#97d077;strokeColor=#82b366;" vertex="1" parent="1">
          <mxGeometry x="160" y="165" width="40" height="40" as="geometry" />
        </mxCell>
        <mxCell id="gUAEJNBoW_0_qJLYptyX-10" style="edgeStyle=orthogonalEdgeStyle;rounded=0;orthogonalLoop=1;jettySize=auto;html=1;entryX=0;entryY=0.5;entryDx=0;entryDy=0;fontSize=16;fillColor=#d5e8d4;gradientColor=#97d077;strokeColor=#82b366;" edge="1" parent="1" source="gUAEJNBoW_0_qJLYptyX-5" target="gUAEJNBoW_0_qJLYptyX-6">
          <mxGeometry relative="1" as="geometry" />
        </mxCell>
        <mxCell id="gUAEJNBoW_0_qJLYptyX-5" value="3" style="rounded=0;whiteSpace=wrap;html=1;fontSize=16;fillColor=#d5e8d4;gradientColor=#97d077;strokeColor=#82b366;" vertex="1" parent="1">
          <mxGeometry x="240" y="165" width="40" height="40" as="geometry" />
        </mxCell>
        <mxCell id="gUAEJNBoW_0_qJLYptyX-11" style="edgeStyle=orthogonalEdgeStyle;rounded=0;orthogonalLoop=1;jettySize=auto;html=1;entryX=0;entryY=0.5;entryDx=0;entryDy=0;fontSize=16;fillColor=#d5e8d4;gradientColor=#97d077;strokeColor=#82b366;" edge="1" parent="1" source="gUAEJNBoW_0_qJLYptyX-6" target="gUAEJNBoW_0_qJLYptyX-7">
          <mxGeometry relative="1" as="geometry" />
        </mxCell>
        <mxCell id="gUAEJNBoW_0_qJLYptyX-6" value="4" style="rounded=0;whiteSpace=wrap;html=1;fontSize=16;fillColor=#d5e8d4;gradientColor=#97d077;strokeColor=#82b366;" vertex="1" parent="1">
          <mxGeometry x="320" y="165" width="40" height="40" as="geometry" />
        </mxCell>
        <mxCell id="gUAEJNBoW_0_qJLYptyX-7" value="5" style="rounded=0;whiteSpace=wrap;html=1;fontSize=16;fillColor=#d5e8d4;gradientColor=#97d077;strokeColor=#82b366;" vertex="1" parent="1">
          <mxGeometry x="400" y="165" width="40" height="40" as="geometry" />
        </mxCell>
        <mxCell id="gUAEJNBoW_0_qJLYptyX-12" style="edgeStyle=orthogonalEdgeStyle;rounded=0;orthogonalLoop=1;jettySize=auto;html=1;entryX=0;entryY=0.5;entryDx=0;entryDy=0;fontSize=16;fillColor=#dae8fc;gradientColor=#7ea6e0;strokeColor=#6c8ebf;" edge="1" parent="1" source="gUAEJNBoW_0_qJLYptyX-13" target="gUAEJNBoW_0_qJLYptyX-15">
          <mxGeometry relative="1" as="geometry" />
        </mxCell>
        <mxCell id="gUAEJNBoW_0_qJLYptyX-13" value="6" style="rounded=0;whiteSpace=wrap;html=1;fontSize=16;fillColor=#dae8fc;gradientColor=#7ea6e0;strokeColor=#6c8ebf;" vertex="1" parent="1">
          <mxGeometry x="80" y="320" width="40" height="40" as="geometry" />
        </mxCell>
        <mxCell id="gUAEJNBoW_0_qJLYptyX-14" style="edgeStyle=orthogonalEdgeStyle;rounded=0;orthogonalLoop=1;jettySize=auto;html=1;entryX=0;entryY=0.5;entryDx=0;entryDy=0;fontSize=16;fillColor=#dae8fc;gradientColor=#7ea6e0;strokeColor=#6c8ebf;" edge="1" parent="1" source="gUAEJNBoW_0_qJLYptyX-15" target="gUAEJNBoW_0_qJLYptyX-17">
          <mxGeometry relative="1" as="geometry" />
        </mxCell>
        <mxCell id="gUAEJNBoW_0_qJLYptyX-15" value="7" style="rounded=0;whiteSpace=wrap;html=1;fontSize=16;fillColor=#dae8fc;gradientColor=#7ea6e0;strokeColor=#6c8ebf;" vertex="1" parent="1">
          <mxGeometry x="160" y="320" width="40" height="40" as="geometry" />
        </mxCell>
        <mxCell id="gUAEJNBoW_0_qJLYptyX-16" style="edgeStyle=orthogonalEdgeStyle;rounded=0;orthogonalLoop=1;jettySize=auto;html=1;entryX=0;entryY=0.5;entryDx=0;entryDy=0;fontSize=16;fillColor=#dae8fc;gradientColor=#7ea6e0;strokeColor=#6c8ebf;" edge="1" parent="1" source="gUAEJNBoW_0_qJLYptyX-17" target="gUAEJNBoW_0_qJLYptyX-19">
          <mxGeometry relative="1" as="geometry" />
        </mxCell>
        <mxCell id="gUAEJNBoW_0_qJLYptyX-17" value="8" style="rounded=0;whiteSpace=wrap;html=1;fontSize=16;fillColor=#dae8fc;gradientColor=#7ea6e0;strokeColor=#6c8ebf;" vertex="1" parent="1">
          <mxGeometry x="240" y="320" width="40" height="40" as="geometry" />
        </mxCell>
        <mxCell id="gUAEJNBoW_0_qJLYptyX-18" style="edgeStyle=orthogonalEdgeStyle;rounded=0;orthogonalLoop=1;jettySize=auto;html=1;entryX=0;entryY=0.5;entryDx=0;entryDy=0;fontSize=16;fillColor=#dae8fc;gradientColor=#7ea6e0;strokeColor=#6c8ebf;" edge="1" parent="1" source="gUAEJNBoW_0_qJLYptyX-19" target="gUAEJNBoW_0_qJLYptyX-20">
          <mxGeometry relative="1" as="geometry" />
        </mxCell>
        <mxCell id="gUAEJNBoW_0_qJLYptyX-19" value="9" style="rounded=0;whiteSpace=wrap;html=1;fontSize=16;fillColor=#dae8fc;gradientColor=#7ea6e0;strokeColor=#6c8ebf;" vertex="1" parent="1">
          <mxGeometry x="320" y="320" width="40" height="40" as="geometry" />
        </mxCell>
        <mxCell id="gUAEJNBoW_0_qJLYptyX-20" value="10" style="rounded=0;whiteSpace=wrap;html=1;fontSize=16;fillColor=#dae8fc;gradientColor=#7ea6e0;strokeColor=#6c8ebf;" vertex="1" parent="1">
          <mxGeometry x="400" y="320" width="40" height="40" as="geometry" />
        </mxCell>
        <mxCell id="gUAEJNBoW_0_qJLYptyX-27" style="edgeStyle=orthogonalEdgeStyle;rounded=0;orthogonalLoop=1;jettySize=auto;html=1;entryX=0.5;entryY=0;entryDx=0;entryDy=0;fontSize=16;" edge="1" parent="1" source="gUAEJNBoW_0_qJLYptyX-21" target="gUAEJNBoW_0_qJLYptyX-2">
          <mxGeometry relative="1" as="geometry" />
        </mxCell>
        <mxCell id="gUAEJNBoW_0_qJLYptyX-21" value="head" style="text;html=1;align=center;verticalAlign=middle;resizable=0;points=[];autosize=1;strokeColor=#82b366;fillColor=#d5e8d4;fontSize=16;gradientColor=#97d077;" vertex="1" parent="1">
          <mxGeometry x="70" y="110" width="60" height="30" as="geometry" />
        </mxCell>
        <mxCell id="gUAEJNBoW_0_qJLYptyX-28" style="edgeStyle=orthogonalEdgeStyle;rounded=0;orthogonalLoop=1;jettySize=auto;html=1;entryX=0.5;entryY=0;entryDx=0;entryDy=0;fontSize=16;" edge="1" parent="1" source="gUAEJNBoW_0_qJLYptyX-22" target="gUAEJNBoW_0_qJLYptyX-7">
          <mxGeometry relative="1" as="geometry" />
        </mxCell>
        <mxCell id="gUAEJNBoW_0_qJLYptyX-22" value="tail" style="text;html=1;align=center;verticalAlign=middle;resizable=0;points=[];autosize=1;strokeColor=#82b366;fillColor=#d5e8d4;fontSize=16;gradientColor=#97d077;" vertex="1" parent="1">
          <mxGeometry x="400" y="110" width="40" height="30" as="geometry" />
        </mxCell>
        <mxCell id="gUAEJNBoW_0_qJLYptyX-25" style="edgeStyle=orthogonalEdgeStyle;rounded=0;orthogonalLoop=1;jettySize=auto;html=1;fontSize=16;" edge="1" parent="1" source="gUAEJNBoW_0_qJLYptyX-23" target="gUAEJNBoW_0_qJLYptyX-13">
          <mxGeometry relative="1" as="geometry" />
        </mxCell>
        <mxCell id="gUAEJNBoW_0_qJLYptyX-23" value="head" style="text;html=1;align=center;verticalAlign=middle;resizable=0;points=[];autosize=1;strokeColor=#6c8ebf;fillColor=#dae8fc;fontSize=16;gradientColor=#7ea6e0;" vertex="1" parent="1">
          <mxGeometry x="70" y="270" width="60" height="30" as="geometry" />
        </mxCell>
        <mxCell id="gUAEJNBoW_0_qJLYptyX-26" style="edgeStyle=orthogonalEdgeStyle;rounded=0;orthogonalLoop=1;jettySize=auto;html=1;fontSize=16;" edge="1" parent="1" source="gUAEJNBoW_0_qJLYptyX-24" target="gUAEJNBoW_0_qJLYptyX-20">
          <mxGeometry relative="1" as="geometry" />
        </mxCell>
        <mxCell id="gUAEJNBoW_0_qJLYptyX-24" value="tail" style="text;html=1;align=center;verticalAlign=middle;resizable=0;points=[];autosize=1;strokeColor=#6c8ebf;fillColor=#dae8fc;fontSize=16;gradientColor=#7ea6e0;" vertex="1" parent="1">
          <mxGeometry x="400" y="270" width="40" height="30" as="geometry" />
        </mxCell>
        <mxCell id="gUAEJNBoW_0_qJLYptyX-30" value="&lt;strong style=&quot;box-sizing: border-box; font-family: &amp;quot;Helvetica Neue&amp;quot;, Helvetica, Arial, sans-serif; orphans: 4; text-align: left; text-size-adjust: auto;&quot;&gt;active list&lt;/strong&gt;" style="text;html=1;align=center;verticalAlign=middle;resizable=0;points=[];autosize=1;strokeColor=#82b366;fillColor=#d5e8d4;fontSize=16;gradientColor=#97d077;" vertex="1" parent="1">
          <mxGeometry x="-50" y="170" width="100" height="30" as="geometry" />
        </mxCell>
        <mxCell id="gUAEJNBoW_0_qJLYptyX-31" value="&lt;strong style=&quot;box-sizing: border-box; font-family: &amp;quot;Helvetica Neue&amp;quot;, Helvetica, Arial, sans-serif; orphans: 4; text-align: left; text-size-adjust: auto;&quot;&gt;inactive list&lt;/strong&gt;" style="text;html=1;align=center;verticalAlign=middle;resizable=0;points=[];autosize=1;strokeColor=#6c8ebf;fillColor=#dae8fc;fontSize=16;gradientColor=#7ea6e0;" vertex="1" parent="1">
          <mxGeometry x="-50" y="325" width="110" height="30" as="geometry" />
        </mxCell>
      </root>
    </mxGraphModel>
  </diagram>
</mxfile>
